<svg xmlns="http://www.w3.org/2000/svg" width="248" height="248" viewBox="0 0 248 248">
  <defs>
    <style>
      .cls-1 {
        fill: #fff;
      }

      .cls-2 {
        fill: #474747;
      }

      .cls-3 {
        fill: red;
      }
    </style>
  </defs>
  <g id="Capa_2" data-name="Capa 2">
    <g id="Capa_1-2" data-name="Capa 1">
      <g>
        <path class="cls-1" d="M124,155.5a31.50361,31.50361,0,0,1-29.32471-20H.53558a123.99872,123.99872,0,0,0,246.92884,0H153.32471A31.50361,31.50361,0,0,1,124,155.5Z"/>
        <path class="cls-2" d="M244.13086,138.5a121.004,121.004,0,0,1-240.26173,0H92.69479a34.5004,34.5004,0,0,0,62.61042,0h88.82565m3.33356-3H153.32471a31.49847,31.49847,0,0,1-58.64942,0H.53558a123.99872,123.99872,0,0,0,246.92884,0Z"/>
      </g>
      <g>
        <path class="cls-1" d="M124,92.5a31.50361,31.50361,0,0,1,29.32471,20h94.13971a123.99872,123.99872,0,0,0-246.92884,0H94.67529A31.50361,31.50361,0,0,1,124,92.5Z"/>
        <path class="cls-2" d="M124,3A121.01559,121.01559,0,0,1,244.13086,109.5H155.30521a34.5004,34.5004,0,0,0-62.61042,0H3.86913A121.01561,121.01561,0,0,1,124,3m0-3A124.00721,124.00721,0,0,0,.53558,112.5H94.67529a31.49847,31.49847,0,0,1,58.64942,0h94.13971A124.00721,124.00721,0,0,0,124,0Z"/>
      </g>
      <g>
        <path class="cls-3" d="M247.46442,112.5H153.32471a31.49847,31.49847,0,0,0-58.64942,0H.53558C.18719,116.28748,0,120.12164,0,124s.18719,7.71252.53558,11.5H94.67529a31.49847,31.49847,0,0,0,58.64942,0h94.13971c.34839-3.78748.53558-7.62164.53558-11.5S247.81281,116.28748,247.46442,112.5Z"/>
        <path class="cls-1" d="M124,95.5a28.34207,28.34207,0,0,1,26.5321,18.09607l.74729,1.90393h93.41855c.20065,2.86086.30206,5.7094.30206,8.5s-.10141,5.63914-.30206,8.5H151.27939l-.74729,1.90393a28.49846,28.49846,0,0,1-53.0642,0L96.72061,132.5H3.30206C3.10139,129.63914,3,126.7906,3,124s.10139-5.63914.30206-8.5H96.72061l.74729-1.90393A28.34207,28.34207,0,0,1,124,95.5m0-3a31.50358,31.50358,0,0,0-29.32471,20H.53558C.18719,116.28746,0,120.12166,0,124s.18719,7.71254.53558,11.5H94.67529a31.49847,31.49847,0,0,0,58.64942,0h94.13971c.34839-3.78746.53558-7.62166.53558-11.5s-.18719-7.71254-.53558-11.5H153.32471A31.50358,31.50358,0,0,0,124,92.5Z"/>
      </g>
      <circle class="cls-1" cx="124" cy="125" r="16"/>
    </g>
  </g>
</svg>
